<svg id="SvgjsSvg1226" width="288" height="288" xmlns="http://www.w3.org/2000/svg" version="1.1" xmlns:xlink="http://www.w3.org/1999/xlink" xmlns:svgjs="http://svgjs.com/svgjs"><circle id="SvgjsCircle1237" r="144" cx="144" cy="144" transform="matrix(0.7916,0,0,0.7916,30.009600000000006,30.009600000000006)" fill="#fd67a4"></circle><defs id="SvgjsDefs1227"></defs><g id="SvgjsG1228" transform="matrix(0.4652,0,0,0.4652,77.01128874435425,77.00521358127594)"><svg xmlns="http://www.w3.org/2000/svg" data-name="Layer 1" viewBox="0 0 32 32" width="288" height="288"><rect width="31" height="21" x=".495" y="4.501" fill="#364f6b" rx="2" ry="2" class="colorafaeb3 svgShape"></rect><path fill="#f0f0f0" d="M31.495,21.5v2a2.006,2.006,0,0,1-2,2h-27a2.006,2.006,0,0,1-2-2v-2Z" class="colore0e0e2 svgShape"></path><path fill="#364f6b" d="M22.495,31.5h-13l1.6-1.2a6,6,0,0,0,2.4-4.8h5a6,6,0,0,0,2.4,4.8Z" class="colorafaeb3 svgShape"></path><path fill="#f0f0f0" d="M11.755 18.512a3.98 3.98 0 0 1-.425-.023A3.449 3.449 0 0 1 8.9 17.12 4.685 4.685 0 0 1 8 14.528a10.976 10.976 0 0 1 .028-1.272 5.413 5.413 0 0 0-.1-1.912A2.894 2.894 0 0 0 6.414 9.611a3.49 3.49 0 0 0-2.7-.166.5.5 0 1 1-.342-.939 4.507 4.507 0 0 1 3.484.209 3.88 3.88 0 0 1 2.022 2.334 6.235 6.235 0 0 1 .142 2.269 10.337 10.337 0 0 0-.028 1.157 3.693 3.693 0 0 0 .7 2.042 2.481 2.481 0 0 0 1.746.979 3.492 3.492 0 0 0 2.58-.836.5.5 0 0 1 .648.762A4.57 4.57 0 0 1 11.755 18.512zM31.505 2.5a1.952 1.952 0 0 1-.59 1.41l-.7.71-2.83-2.83.71-.7a1.974 1.974 0 0 1 2.82 0A1.952 1.952 0 0 1 31.505 2.5z" class="colore0e0e2 svgShape"></path><rect width="15.005" height="4.002" x="15.993" y="6.51" fill="#fc5185" transform="rotate(-45 23.494 8.511)" class="colored4569 svgShape"></rect><polygon fill="#43dde6" points="19.605 15.231 16.075 15.941 16.775 12.401 19.605 15.231" class="colorf5bdaf svgShape"></polygon></svg></g></svg>