<svg version="1.1" id="Layer_1" xmlns="http://www.w3.org/2000/svg" xmlns:xlink="http://www.w3.org/1999/xlink" x="0px" y="0px"
	 width="100%" viewBox="0 0 1035 737" enable-background="new 0 0 1035 737" xml:space="preserve">
<path fill="#F2F2F2" opacity="1.000000" stroke="none" 
	d="
M721.316833,737.751282 
	C669.979126,738.000000 618.958191,738.000000 567.468628,738.000000 
	C561.932739,735.705872 556.516357,737.181152 551.278687,736.668030 
	C534.715271,735.045410 518.189087,733.155334 501.673065,731.125854 
	C474.422211,727.777161 447.216492,724.073792 420.007690,720.419800 
	C398.909363,717.586365 377.849518,714.407471 356.852692,710.808716 
	C329.126648,706.056702 301.563263,700.504456 273.994324,694.956909 
	C259.133850,691.966614 244.503632,688.001465 229.750839,684.555603 
	C227.816605,684.103821 225.835922,683.587646 224.598175,681.290527 
	C225.287964,678.242004 227.601334,678.775635 229.464020,678.614075 
	C241.250198,677.592285 249.946503,668.690430 250.427124,657.063782 
	C250.886353,645.954956 242.197418,635.410034 231.137939,633.654358 
	C219.709915,631.840149 209.034729,638.744568 205.758606,649.877991 
	C203.149872,658.743347 205.310654,666.264832 211.658279,672.765259 
	C213.030960,674.170959 214.913101,675.172974 215.242645,677.730103 
	C212.925629,679.985962 210.446152,679.280823 208.048935,678.627075 
	C179.916840,670.954346 152.447113,661.569580 126.016266,649.039001 
	C104.251686,638.720642 83.634041,626.734619 65.271950,611.160889 
	C40.924583,590.510742 23.163982,565.173157 12.294827,535.038879 
	C8.101017,523.411743 5.397733,511.426636 2.599146,499.439301 
	C1.834900,496.165802 2.546582,492.787170 1.243858,489.292847 
	C1.000000,470.645782 1.000000,452.291534 1.000000,433.468658 
	C3.339157,427.755829 3.025480,421.985077 4.151121,416.493469 
	C8.128120,397.091248 15.340678,378.933075 24.103060,361.311188 
	C25.417978,358.666840 26.886883,355.985840 29.905787,354.191162 
	C35.281979,354.115723 38.236031,358.012665 41.569931,360.691406 
	C56.839874,372.960541 73.094162,383.852417 89.202637,395.568481 
	C90.693283,398.079987 90.534584,400.672882 91.286011,403.056580 
	C93.246956,409.277222 97.804375,413.246765 102.573334,417.259979 
	C118.088211,430.316101 133.254822,443.785706 148.903687,456.682709 
	C159.898972,465.744446 167.542648,466.195465 179.816345,459.028015 
	C180.541763,458.604401 181.293930,458.271088 182.497131,458.132751 
	C186.455078,458.844543 188.928833,461.501038 191.768539,463.440704 
	C224.529236,485.817993 257.381256,508.058655 290.474152,529.942566 
	C290.889832,530.217407 291.219604,530.599670 291.725220,531.327698 
	C293.213989,537.757751 292.328796,543.921936 292.536499,550.047913 
	C292.840179,559.003723 294.481354,567.543518 299.969604,575.372864 
	C300.911102,576.684937 301.191071,577.948303 302.374237,579.057251 
	C314.037323,589.614868 326.385742,598.730347 339.043152,608.003784 
	C340.094635,609.008423 340.953308,609.700928 342.278320,610.326416 
	C353.842499,618.014465 364.979889,625.732605 376.790833,633.066895 
	C377.842255,633.787354 378.483795,634.482483 379.675110,635.005005 
	C386.940704,639.110901 394.100891,642.801208 400.759979,647.113770 
	C412.184448,654.512512 422.229248,651.788574 432.283203,644.993896 
	C435.866974,642.571899 439.325195,639.943848 442.320404,636.777649 
	C443.713074,635.305481 445.126709,633.876404 447.782135,634.180847 
	C459.906097,640.543152 471.119263,647.783386 482.150543,655.196533 
	C490.458588,660.779785 498.991272,661.540527 508.254730,660.153687 
	C510.402618,659.832214 512.538696,659.538086 515.075378,659.617554 
	C517.241150,659.566345 519.104614,660.470703 521.163208,659.123474 
	C526.469666,657.059998 531.791504,656.589722 536.918762,655.290039 
	C546.390198,652.889160 555.672119,649.901489 565.244751,646.575256 
	C565.818054,646.344177 566.037048,646.230530 566.591736,645.968628 
	C584.494690,638.858582 600.630981,629.397949 615.894653,617.717346 
	C616.907837,616.950500 617.664368,616.422791 618.573730,615.532349 
	C633.591614,603.396912 646.471985,589.756287 657.240356,573.679199 
	C660.764709,568.910889 665.899414,566.999146 670.455017,564.323914 
	C694.857666,549.993408 719.291748,535.720459 743.551575,521.144226 
	C756.672852,513.260498 769.662842,505.137756 783.044922,497.686096 
	C784.067200,497.116821 785.085449,496.556824 786.626953,496.367859 
	C789.727539,497.139343 790.669983,499.609833 791.876648,501.728363 
	C801.667725,518.917725 811.617004,536.015625 821.527954,553.135681 
	C824.229248,557.801941 824.601135,557.977295 829.257935,555.376465 
	C844.499512,546.864136 859.476196,537.889282 874.650330,529.260620 
	C877.878967,527.424683 877.634827,525.689514 876.099182,522.857605 
	C869.596619,510.866364 862.304504,499.332306 855.745605,487.377502 
	C854.568115,485.231354 852.755371,483.288635 853.353027,480.175781 
	C858.451294,475.248749 864.667542,472.720825 870.522278,469.629700 
	C896.290161,456.025085 921.982056,442.277954 947.723938,428.624664 
	C949.905701,427.467529 952.053040,426.048462 955.103455,426.356293 
	C958.508545,427.908752 960.196655,430.731934 961.826721,433.354065 
	C980.479614,463.358582 998.906067,493.508698 1011.870239,526.554565 
	C1018.457214,543.345093 1023.872314,560.675720 1025.972656,578.517761 
	C1028.556885,600.471680 1026.470947,622.225281 1014.631958,641.822937 
	C1006.565979,655.174866 995.196167,665.419189 982.468994,674.174866 
	C959.709717,689.832214 934.401794,700.007935 908.151306,707.972534 
	C892.206787,712.810242 875.966797,716.575317 859.677979,720.089294 
	C834.746399,725.467712 809.561340,729.292969 784.228699,732.140991 
	C764.389038,734.371521 744.557129,736.780151 724.550964,737.006653 
	C723.554626,737.017944 722.544067,736.973022 721.316833,737.751282 
z"/>
<path fill="#F2F2F2" opacity="1.000000" stroke="none" 
	d="
M472.724182,1.242823 
	C483.354218,1.000000 493.708466,1.000000 504.531342,1.000000 
	C512.810608,2.388148 520.467346,4.352193 528.049805,6.705878 
	C547.633545,12.784919 565.553528,22.328611 582.635559,33.388634 
	C610.105164,51.174145 635.218140,72.004906 659.482849,93.921349 
	C684.084778,116.142311 708.042725,139.022919 731.779236,162.160843 
	C741.794495,171.923523 752.099670,181.409409 761.805176,191.480865 
	C777.171143,207.426193 792.542847,223.368866 807.726318,239.488052 
	C810.383728,242.309174 813.675232,244.982574 813.970337,249.750702 
	C813.340942,252.194504 811.777466,253.411118 810.041565,254.436234 
	C795.213440,263.192932 780.404846,271.982727 765.584229,280.751862 
	C758.899658,284.707001 751.873840,288.133148 745.501465,293.288391 
	C733.861938,297.944031 724.162476,305.362488 713.539368,311.117554 
	C707.143433,314.582581 701.009949,318.589325 694.548462,321.958588 
	C690.876587,323.873199 690.203186,326.092773 692.352051,329.493958 
	C693.607971,331.481842 694.609558,333.594849 693.437012,336.393066 
	C690.668457,339.827606 686.845703,340.893555 683.436462,342.528839 
	C671.873718,348.074829 660.181274,353.320038 647.810364,356.905518 
	C641.381958,358.768677 635.103821,358.754578 628.617310,357.042847 
	C612.679810,352.837067 596.935425,347.879974 580.774780,344.538635 
	C575.071838,343.359497 569.375122,342.117920 563.560669,341.548706 
	C553.674805,340.580933 544.404846,342.611664 535.484497,346.877350 
	C531.929138,348.577484 528.371643,350.671143 523.734619,350.015594 
	C517.887146,346.714142 512.767212,342.985443 507.399048,339.639038 
	C501.561829,336.000153 495.368958,333.191101 488.756836,331.311035 
	C483.807800,329.903778 478.888824,330.309540 473.946686,331.485535 
	C442.171814,339.046661 410.954590,348.602539 379.643860,357.821747 
	C372.135590,360.032501 364.608826,362.187225 357.156952,364.586578 
	C353.524323,365.756195 350.256683,365.164032 347.349701,362.677490 
	C325.963989,344.384338 304.379272,326.325958 282.946136,308.088745 
	C282.437042,307.655579 282.029327,307.123749 281.420715,306.283569 
	C280.158539,303.462891 278.361908,301.513214 276.326630,299.797699 
	C262.788239,288.386353 249.367035,276.837799 235.915421,265.324921 
	C234.615311,264.212189 233.175339,263.492676 231.167419,263.083008 
	C223.913330,258.861115 218.432739,252.975204 212.280045,247.915573 
	C205.596893,242.419693 198.882767,236.960175 192.408630,231.216888 
	C190.934784,229.909424 189.170074,228.806961 188.647873,226.334579 
	C192.410355,221.277237 198.092072,219.324020 202.875015,216.125916 
	C220.270020,204.494812 237.199860,192.281906 253.639709,179.306061 
	C276.808960,161.018768 297.447021,140.095810 318.272614,119.332649 
	C319.331543,118.276894 320.345490,117.158195 321.614868,116.348579 
	C323.128174,115.383400 324.650879,114.811035 326.049194,117.170311 
	C326.907349,120.172600 326.718140,122.851730 326.720123,125.510712 
	C326.738312,149.672623 326.712738,173.834564 326.740265,197.996445 
	C326.748291,205.054138 326.939392,205.254944 334.062225,205.258286 
	C385.385468,205.282425 436.709808,205.431732 488.030884,205.101990 
	C496.141754,205.049896 500.744629,207.780151 503.545746,215.207153 
	C506.126740,222.050522 509.646576,228.526886 512.751282,235.165573 
	C514.183960,238.228958 515.702087,237.991302 516.952881,235.055191 
	C520.155457,227.536926 524.194885,220.413666 527.421997,212.915970 
	C529.738708,207.533310 533.354248,205.002426 539.410217,205.190750 
	C549.064697,205.490967 558.737610,205.351898 568.401428,205.231796 
	C573.621887,205.166916 574.208130,204.642426 574.224060,199.461197 
	C574.311218,171.133698 574.318665,142.805832 574.219727,114.478363 
	C574.201782,109.343178 573.604187,108.918175 568.330872,108.749985 
	C566.499084,108.691566 564.665161,108.730194 562.832214,108.730179 
	C490.346466,108.729553 417.860687,108.731689 345.374939,108.722832 
	C342.378937,108.722466 339.374359,108.880379 335.981934,108.335442 
	C331.704132,106.427162 333.655212,104.125206 335.369110,102.370193 
	C341.873444,95.709930 347.953064,88.657860 354.509796,82.042023 
	C363.872955,72.594368 373.526764,63.449684 383.257111,54.398392 
	C402.671021,36.339306 423.153534,19.625444 447.716095,8.929774 
	C455.578156,5.506269 463.906036,2.976753 472.724182,1.242823 
z"/>
<path fill="#FFFFFF" opacity="1.000000" stroke="none" 
	d="
M813.431824,250.528427 
	C813.175781,246.000595 809.624573,243.654739 807.233215,240.941544 
	C800.548828,233.357483 793.418823,226.161835 786.375183,218.899719 
	C773.289307,205.408127 760.338318,191.777161 746.963928,178.576309 
	C732.193359,163.997360 716.808777,150.039597 702.069397,135.430176 
	C689.799561,123.268440 677.080688,111.595055 664.324890,99.976410 
	C646.224243,83.489426 627.738159,67.429131 607.958374,52.913658 
	C595.674805,43.899311 583.403564,34.959282 570.133972,27.361061 
	C553.383301,17.769579 536.005310,9.952531 517.335510,4.894022 
	C513.295837,3.799491 508.936249,3.891674 505.088623,1.380472 
	C680.381470,1.000000 855.762939,1.014521 1031.144409,0.904335 
	C1034.969604,0.901932 1036.158081,1.349137 1036.131592,5.638805 
	C1035.903198,42.778965 1036.000000,79.921120 1036.000000,117.531342 
	C1025.930542,125.104607 1015.145020,131.061691 1004.636475,137.455368 
	C970.946045,157.953629 937.137634,178.258438 903.347168,198.590942 
	C876.118469,214.975098 848.897583,231.376892 821.523621,247.519821 
	C819.116882,248.939133 816.781799,250.674622 813.431824,250.528427 
z"/>
<path fill="#FFFFFF" opacity="1.000000" stroke="none" 
	d="
M472.531342,1.000000 
	C472.689606,3.518430 470.398804,3.523734 468.824280,3.774911 
	C464.687103,4.434897 460.931396,6.204840 456.989227,7.303409 
	C442.556000,11.325512 430.314148,19.308289 418.105682,27.502001 
	C405.690979,35.834114 394.581482,45.756298 383.704651,55.906822 
	C371.481934,67.313332 359.395050,78.896599 347.822906,90.953743 
	C343.148682,95.823860 338.194336,100.539291 334.031372,106.297577 
	C333.779602,107.086044 333.519562,107.701439 333.052032,107.707069 
	C327.814606,107.770126 326.390900,111.496658 324.992096,115.789307 
	C322.623810,116.266830 321.605988,117.931419 320.334351,119.195328 
	C311.711395,127.766068 303.312622,136.571976 294.481720,144.921478 
	C283.519531,155.286072 272.469543,165.589172 260.971161,175.345703 
	C251.146622,183.681961 240.913620,191.606567 230.357620,198.993469 
	C216.977112,208.356934 203.731796,217.981674 189.024902,226.003036 
	C186.206818,226.612106 184.648132,224.990295 183.009766,223.595230 
	C148.000290,193.785095 113.002983,163.957428 77.634743,134.575836 
	C57.003902,117.437096 35.784344,101.008286 14.743505,84.368355 
	C13.487581,83.375122 12.183314,81.513878 10.519246,82.347748 
	C8.867425,83.175484 9.540517,85.356979 9.539386,86.959183 
	C9.506790,133.118622 9.515159,179.278076 9.514561,225.437531 
	C9.514137,258.099091 9.618075,290.761261 9.422263,323.421661 
	C9.385476,329.557434 10.956316,334.323151 15.772306,338.326569 
	C19.855913,341.721130 23.460985,345.694366 27.602484,349.071228 
	C29.242146,350.408142 31.141655,351.661072 31.540627,354.410767 
	C27.803137,355.829895 26.569630,359.361359 25.294559,362.059937 
	C17.551273,378.447937 9.958478,394.936951 6.524434,412.933655 
	C5.349963,419.088745 4.145022,425.238342 2.883016,431.375885 
	C2.770897,431.921143 2.132139,432.358154 1.368991,432.922729 
	C1.000000,290.402374 1.019068,147.804733 0.894454,5.207214 
	C0.891206,1.490200 1.795336,0.909871 5.288822,0.912152 
	C160.880051,1.013718 316.471375,1.000000 472.531342,1.000000 
z"/>
<path fill="#74D5DE" opacity="1.000000" stroke="none" 
	d="
M812.908997,250.647980 
	C824.704651,244.924820 835.321533,237.731583 846.280762,231.149353 
	C902.280029,197.515594 958.176575,163.710876 1014.189941,130.100754 
	C1021.144592,125.927734 1027.753052,121.119125 1035.631958,117.947174 
	C1036.000000,206.354233 1036.000000,294.708466 1036.000000,383.531342 
	C1032.250977,387.700684 1027.355835,389.609924 1022.839111,391.975220 
	C1001.909485,402.935486 981.018127,413.963593 960.292053,425.304504 
	C958.836731,426.100830 957.393799,426.975616 955.266052,426.877899 
	C944.984985,430.814606 935.941589,436.488190 926.529053,441.423157 
	C902.368896,454.090210 878.357910,467.041687 853.964661,480.072113 
	C850.742737,480.793701 849.921082,478.382690 848.951477,476.630524 
	C835.817993,452.896362 822.000610,429.551575 808.367249,406.109711 
	C792.474426,378.782654 776.951965,351.240509 760.818237,324.051941 
	C755.555359,315.182983 750.536255,306.164246 745.302734,297.273254 
	C744.623962,296.120087 744.039551,294.917847 744.347717,293.153442 
	C750.247131,286.882416 757.946167,283.902740 764.828857,279.688416 
	C780.713257,269.962372 796.750366,260.485931 812.908997,250.647980 
z"/>
<path fill="#FFFFFF" opacity="1.000000" stroke="none" 
	d="
M224.757828,679.941589 
	C225.959457,682.803528 228.409943,682.518311 230.391556,683.038147 
	C256.669403,689.931885 283.290894,695.313477 309.894379,700.724976 
	C329.974945,704.809509 350.141144,708.553406 370.376740,711.773254 
	C390.454407,714.968018 410.671539,717.281677 430.818268,720.048950 
	C447.032379,722.276062 463.198334,724.895691 479.448334,726.808655 
	C497.677368,728.954651 515.843201,731.613525 534.156311,733.141296 
	C544.367737,733.993225 554.460266,736.244629 564.788269,736.038147 
	C565.663330,736.020630 566.402771,736.363708 566.903076,737.608643 
	C379.933838,738.000000 192.867661,737.984802 5.801579,738.103638 
	C1.862193,738.106140 0.871202,737.475403 0.879544,733.306396 
	C1.041871,652.183594 1.000000,571.060425 1.000000,489.468658 
	C2.094802,489.172516 2.811822,489.702942 2.942742,490.894196 
	C4.781969,507.629517 9.331061,523.773560 15.252947,539.381653 
	C20.962524,554.430176 29.134378,568.360718 38.847847,581.306152 
	C48.474297,594.135681 59.742008,605.400452 72.354279,615.182678 
	C86.052055,625.806824 100.786743,634.879333 116.294136,642.752563 
	C140.408844,654.995850 165.481216,664.785400 191.358688,672.442017 
	C198.895676,674.672119 206.298706,677.998474 214.876892,677.852112 
	C218.670044,676.998901 221.584488,678.436707 224.757828,679.941589 
z"/>
<path fill="#FFFFFF" opacity="1.000000" stroke="none" 
	d="
M955.099609,427.138214 
	C970.391357,417.489471 986.731323,409.693817 1002.622253,401.067719 
	C1013.413635,395.209808 1024.382446,389.678558 1035.635986,384.000610 
	C1036.000000,500.590363 1035.978149,617.180725 1036.101196,733.770935 
	C1036.105103,737.425537 1035.288940,738.097534 1031.734375,738.093567 
	C928.468750,737.977844 825.203064,738.000000 721.468628,738.000000 
	C721.222961,736.251343 722.460449,736.090454 723.900696,735.988831 
	C732.822266,735.359558 741.740417,734.681641 750.658203,734.000000 
	C765.178467,732.890015 779.592407,730.753723 794.068237,729.322693 
	C812.880554,727.462952 831.379639,723.778381 849.993469,720.809570 
	C860.582153,719.120667 870.888245,715.726807 881.389038,713.405884 
	C901.311523,709.002441 920.754517,703.076050 939.573730,695.221436 
	C953.453735,689.428345 966.841675,682.748291 979.404114,674.271729 
	C994.218628,664.275574 1007.332886,652.845459 1015.664795,636.810181 
	C1021.128418,626.295166 1024.092407,614.937805 1024.979004,603.090393 
	C1025.127808,601.101807 1024.878906,599.083984 1025.018799,597.094055 
	C1026.411255,577.275757 1021.149231,558.507385 1015.001160,540.133240 
	C1005.040283,510.364075 990.762817,482.575531 973.785400,456.165833 
	C967.626282,446.584778 962.715759,436.202057 955.099609,427.138214 
z"/>
<path fill="#D27C59" opacity="1.000000" stroke="none" 
	d="
M281.305756,304.768707 
	C301.931488,322.171722 322.567017,339.045044 342.362244,356.852448 
	C349.360809,363.148193 355.173706,364.079987 363.997284,361.265808 
	C396.012970,351.054840 428.289001,341.641205 460.828461,333.189270 
	C466.303040,331.767334 471.809998,330.444397 477.348297,329.299744 
	C484.558990,327.809418 491.190765,330.065094 497.648865,332.944672 
	C506.669281,336.966736 514.850952,342.375763 522.896545,348.572754 
	C524.344116,352.047211 521.594666,352.455994 519.818054,353.299652 
	C508.535278,358.657318 496.796906,362.963593 485.463745,368.227905 
	C473.537170,373.767792 461.391357,378.831696 449.298553,384.006744 
	C443.439056,386.514282 439.560577,391.558014 435.560028,396.169067 
	C428.350647,404.478851 420.416809,412.089111 413.092621,420.283569 
	C399.553955,435.430969 385.073669,449.709198 371.557953,464.880615 
	C364.915527,472.336761 367.458527,481.698669 376.864471,485.001343 
	C382.707428,487.052979 388.793030,488.103333 394.822723,489.360260 
	C398.944336,490.219391 402.660858,489.218872 406.076294,486.592926 
	C420.341858,475.624786 435.029999,465.246765 450.032959,455.307129 
	C456.019196,451.341125 462.410706,448.099152 468.581421,444.465576 
	C472.621094,442.086761 476.829010,442.167236 481.066620,443.984985 
	C487.838928,446.890045 494.075226,450.825439 500.044220,455.012390 
	C513.267273,464.287720 526.572205,473.458984 539.423462,483.262695 
	C558.357239,497.706512 576.876831,512.654175 594.779846,528.357727 
	C611.557861,543.074585 628.168823,557.975586 643.472046,574.255310 
	C645.935181,576.875671 648.396851,576.080200 651.214417,575.069824 
	C653.502808,574.249146 655.496826,571.472656 658.310059,573.926941 
	C647.865601,590.430786 634.766113,604.055054 619.597351,616.191528 
	C616.902283,616.876831 615.582825,615.036804 614.111328,613.844849 
	C580.378174,586.521240 546.715454,559.110779 513.012573,531.749878 
	C502.041107,522.842834 490.907623,514.131287 484.054657,508.302094 
	C506.134216,525.906311 531.933411,547.080994 557.816650,568.150879 
	C576.896973,583.682922 596.124146,599.035034 615.085632,614.712952 
	C615.978333,615.451050 616.918579,616.178040 617.186646,617.710327 
	C602.276794,630.509705 585.544373,639.692993 567.300171,646.940002 
	C549.075928,632.901550 531.691772,618.266663 513.969666,604.051575 
	C502.408722,594.778442 491.155121,585.114502 480.354614,577.167297 
	C501.742188,593.822388 523.581360,612.183777 545.856018,630.004272 
	C552.715393,635.492065 559.282654,641.346680 566.693237,646.710144 
	C554.130310,652.851685 540.503967,656.100464 526.759094,658.950256 
	C525.140198,659.285889 523.512512,659.578979 521.496948,659.955078 
	C519.324402,660.878052 518.308777,659.481018 517.220398,658.591064 
	C494.887909,640.330017 472.407013,622.250977 450.061188,604.006042 
	C461.117523,613.121826 472.268433,622.122437 483.397400,631.149841 
	C493.572235,639.403320 503.736115,647.670349 513.882812,655.958374 
	C515.027771,656.893616 516.250305,657.841248 516.399170,659.841187 
	C509.105743,662.330505 501.581848,662.043579 494.175537,662.517517 
	C492.129059,662.648499 489.819550,661.032349 487.863861,659.836487 
	C474.687988,651.780212 461.574829,643.621460 448.218262,635.244629 
	C446.657440,633.520935 447.138794,631.872803 447.602570,630.271362 
	C449.437592,623.934753 448.749451,617.638123 446.705750,611.582703 
	C442.817413,600.061768 438.402435,588.743286 431.729004,578.455200 
	C430.349915,576.329102 428.792389,574.484070 426.740631,572.959106 
	C405.353180,557.062866 383.417236,541.989075 360.845947,527.803467 
	C352.799469,522.746399 344.800018,521.037109 335.305969,521.999146 
	C324.027435,523.141907 312.861267,524.500366 301.786316,526.906494 
	C297.917938,527.746948 294.899902,530.148743 290.968872,531.378967 
	C275.805756,522.289368 261.664276,512.312683 247.332001,502.626984 
	C225.957642,488.182251 204.645081,473.646118 183.019592,458.929016 
	C181.967331,457.000214 183.051987,455.838959 183.999268,454.703064 
	C195.511597,440.898804 207.372177,427.391205 219.007294,413.690918 
	C223.960205,407.858856 229.006241,402.089417 233.946396,396.249847 
	C242.525818,386.108459 242.452682,375.521515 234.371567,364.845703 
	C233.668015,363.916260 232.892380,363.039764 232.426559,361.559479 
	C232.339035,359.761963 233.143860,358.705811 234.026398,357.697998 
	C248.338638,341.354340 262.421143,324.814087 276.461334,308.236847 
	C277.698853,306.775696 278.719025,304.863892 281.305756,304.768707 
z"/>
<path fill="#DE8E69" opacity="1.000000" stroke="none" 
	d="
M658.473022,574.070740 
	C654.689209,573.066528 652.709290,576.380493 649.859436,577.227783 
	C646.912781,578.103882 644.927002,577.935181 642.777710,575.626648 
	C630.306091,562.231079 616.891479,549.818420 603.178528,537.704712 
	C588.413574,524.661682 573.583313,511.706757 558.070190,499.551178 
	C541.021179,486.192047 523.824768,473.045685 505.898071,460.857239 
	C497.965179,455.463654 490.054321,450.122894 481.549957,445.639801 
	C476.306305,442.875580 471.677246,443.963165 467.000854,446.660889 
	C446.025879,458.760956 426.365448,472.800598 407.213074,487.552185 
	C402.671143,491.050507 398.050964,491.750549 392.765747,490.424347 
	C386.177094,488.771027 379.401031,487.833710 373.109528,485.063049 
	C366.693878,482.237732 364.100708,470.815308 368.914001,465.627899 
	C379.303162,454.431274 389.836334,443.368408 400.272156,432.214874 
	C414.217682,417.310303 428.145752,402.389252 442.031921,387.429474 
	C444.245270,385.045013 446.870728,383.442871 449.810394,382.166534 
	C466.651428,374.854584 483.464874,367.479065 500.302673,360.159607 
	C506.651123,357.399902 513.031250,354.712372 519.416687,352.039215 
	C520.787781,351.465210 522.342346,351.235840 522.999695,349.212952 
	C525.513855,349.682922 527.645508,348.745880 529.743469,347.677368 
	C543.143250,340.852539 557.020447,337.682465 572.102356,341.099121 
	C582.463135,343.446228 592.864746,345.593567 603.106750,348.437836 
	C609.502625,350.214020 616.102356,351.443848 622.273804,353.800720 
	C634.217957,358.362244 645.631714,357.048584 657.125610,352.395203 
	C669.141113,347.530670 681.055847,342.473480 692.769409,336.109314 
	C696.775757,334.759766 697.632629,337.961273 698.839539,340.016632 
	C705.156128,350.774475 711.510559,361.511749 717.675171,372.358673 
	C739.787903,411.266754 762.484863,449.838165 784.683289,488.696686 
	C786.030518,491.055084 788.403381,493.145630 787.264282,496.657288 
	C756.414185,515.121460 725.818848,533.331787 695.177246,551.463928 
	C684.869019,557.563843 674.450684,563.478088 664.064453,569.445557 
	C662.023315,570.618408 660.085327,571.871643 658.473022,574.070740 
z"/>
<path fill="#D27D5A" opacity="1.000000" stroke="none" 
	d="
M31.791122,354.866943 
	C25.243065,349.074982 19.069975,343.269989 12.757349,337.620911 
	C9.566865,334.765808 8.261552,331.539246 8.268079,327.138367 
	C8.388136,246.191696 8.356146,165.244827 8.356634,84.297989 
	C8.356640,83.465210 8.332962,82.631187 8.370361,81.799988 
	C8.413977,80.830589 8.121951,79.586388 9.188455,79.118553 
	C10.214931,78.668282 10.999725,79.637970 11.765069,80.240746 
	C19.088734,86.008774 26.386786,91.809525 33.731079,97.551140 
	C85.292709,137.860901 134.560440,180.927780 184.611557,223.053116 
	C185.757507,224.017578 186.935837,224.943542 188.394669,226.019928 
	C202.665970,238.086014 216.641663,250.019653 230.921967,262.141174 
	C232.025467,264.042664 230.916153,265.195435 229.959518,266.310852 
	C214.823105,283.959808 200.095993,301.960358 184.190247,319.390808 
	C181.545654,320.051819 180.192337,318.356934 178.595535,317.227936 
	C168.699844,310.231201 157.510849,310.807037 149.094376,319.472412 
	C139.000107,329.865204 129.968445,341.227600 120.559570,352.241730 
	C113.206161,360.849731 106.053360,369.640656 98.379410,377.958588 
	C93.565323,383.176727 90.943176,389.257568 88.989479,396.102936 
	C72.957283,386.018005 57.931168,374.861237 43.055714,363.496368 
	C39.372150,360.682129 35.755695,357.780090 31.791122,354.866943 
z"/>
<path fill="#FDD792" opacity="1.000000" stroke="none" 
	d="
M787.294006,497.150299 
	C785.957886,491.389465 782.218933,487.165588 779.539001,482.472382 
	C759.927795,448.128662 740.086731,413.916199 720.313599,379.664948 
	C712.752869,366.568085 705.222229,353.453308 697.559204,340.416504 
	C696.606262,338.795319 696.045898,336.606567 693.421875,335.993652 
	C693.676147,332.579285 691.171997,330.399780 689.844421,327.823517 
	C688.501892,325.218384 688.875610,323.573853 691.426331,322.108124 
	C707.645691,312.787720 723.820068,303.388947 740.042236,294.073425 
	C741.150696,293.436890 742.527222,293.267365 744.118042,292.840698 
	C760.920349,321.312134 777.393127,349.818054 793.844482,378.336273 
	C812.455994,410.599030 831.045349,442.874542 849.657715,475.136780 
	C850.644348,476.846954 851.412903,478.726501 853.349487,480.123535 
	C858.772705,491.091492 865.369019,501.091888 871.253784,511.493469 
	C873.705688,515.827332 876.115356,520.188477 878.700745,524.442078 
	C880.188049,526.889099 879.592102,528.095459 877.137146,529.482727 
	C860.777710,538.727478 844.450562,548.033936 828.263672,557.575989 
	C824.748840,559.647888 823.212891,559.043884 821.275818,555.648010 
	C810.154663,536.151367 798.821594,516.775635 787.294006,497.150299 
z"/>
<path fill="#5C5B5B" opacity="1.000000" stroke="none" 
	d="
M88.722015,396.645325 
	C88.549675,384.857971 96.753136,378.086304 103.193176,370.429504 
	C116.125130,355.054352 129.240723,339.833282 142.328079,324.589478 
	C145.460159,320.941315 148.431168,317.059631 152.715469,314.632172 
	C163.814789,308.343384 173.744202,310.814850 183.184753,318.919617 
	C185.223312,318.914398 186.119873,320.302917 187.196274,321.237671 
	C201.330444,333.511688 215.657623,345.558533 229.941162,357.656799 
	C230.953339,358.514130 231.953674,359.392456 232.692291,360.948669 
	C244.830215,374.052551 244.558517,386.380585 233.021622,399.521301 
	C216.081772,418.816010 199.631241,438.540283 182.852570,458.395355 
	C175.330719,464.290436 167.329865,467.003387 158.054550,464.057281 
	C154.813904,463.027985 152.056961,461.290253 149.503555,459.106201 
	C132.342392,444.427612 115.199509,429.727264 97.972481,415.126221 
	C92.323853,410.338623 89.241203,404.399384 88.722015,396.645325 
z"/>
<path fill="#DE8E69" opacity="1.000000" stroke="none" 
	d="
M290.724426,531.712646 
	C293.723572,528.519226 297.139709,526.706787 301.338196,525.574768 
	C314.235046,522.097595 327.447662,521.317505 340.608093,520.053467 
	C347.243774,519.416077 353.264954,521.335876 358.978668,524.934326 
	C381.715485,539.253845 403.917175,554.314758 425.533356,570.300171 
	C434.478882,576.915466 437.968750,586.473877 442.135162,595.689331 
	C446.174072,604.622864 450.300964,613.704346 450.109680,623.999451 
	C450.042297,627.626892 448.512848,630.762268 448.004333,634.593262 
	C446.041473,634.609070 444.979004,635.833130 443.833618,637.129639 
	C440.729340,640.643494 436.994202,643.458008 433.158447,646.091431 
	C422.539581,653.381897 411.823303,656.257874 399.894592,648.263733 
	C393.297058,643.842346 385.976868,640.464417 379.092834,635.728027 
	C378.940430,633.335144 380.572418,632.222595 382.020050,631.237183 
	C388.628693,626.739014 394.683594,621.514832 401.429688,616.626709 
	C405.569000,613.854553 409.059723,610.786072 412.823303,608.089722 
	C409.045013,610.681396 405.655914,613.814453 401.486389,616.462952 
	C394.032288,622.246216 386.682709,627.589905 379.600342,633.281250 
	C378.937500,633.813904 378.201691,634.147766 377.002319,634.258789 
	C364.766846,627.200195 353.269958,619.548401 341.960938,611.062012 
	C341.794556,607.904724 344.122650,606.924866 345.938416,605.568787 
	C359.380157,595.529907 372.578827,585.172974 386.031158,575.148560 
	C371.721283,585.624390 357.924133,596.776123 343.544983,607.159790 
	C342.344635,608.026672 341.262909,609.124634 339.344421,609.187012 
	C326.026733,600.448792 313.576111,591.139893 302.116516,580.060181 
	C301.716217,577.419434 303.601868,576.801392 305.042572,575.713745 
	C319.304047,564.947571 333.374268,553.929565 347.856323,543.453918 
	C339.104340,549.634338 330.697968,556.272156 322.093689,562.647461 
	C316.776886,566.586914 311.760223,570.920837 306.303040,574.673096 
	C304.558807,575.872437 303.025665,577.505798 300.389893,577.487427 
	C292.991425,570.516296 291.754364,561.470764 291.050354,552.426025 
	C290.526917,545.701233 290.884705,538.907898 290.724426,531.712646 
z"/>
<path fill="#79D6DF" opacity="1.000000" stroke="none" 
	d="
M225.412445,680.223938 
	C221.838837,680.046570 218.797882,679.490479 215.669464,677.867065 
	C209.847168,673.120361 204.986313,668.260376 203.646774,660.541931 
	C201.382599,647.495789 209.346954,635.593994 223.016754,632.555908 
	C235.137604,629.861938 247.558929,637.971069 250.947830,650.138733 
	C254.708344,663.640686 244.475113,681.678955 225.412445,680.223938 
z"/>
<path fill="#79D6DF" opacity="1.000000" stroke="none" 
	d="
M724.331482,638.597595 
	C718.879883,630.133362 718.658508,622.244019 723.452515,615.472839 
	C727.768372,609.377075 735.828979,606.496704 743.361816,608.358459 
	C749.922913,609.980042 755.952148,616.175293 756.907288,622.276917 
	C758.328491,631.355896 755.484253,637.960205 748.238464,642.405579 
	C741.877991,646.307983 733.344910,645.869263 727.111877,641.264832 
	C726.183044,640.578735 725.412964,639.677856 724.331482,638.597595 
z"/>
<path fill="#78635A" opacity="1.000000" stroke="none" 
	d="
M617.410034,618.030090 
	C591.857727,597.530640 566.596375,577.038452 541.388428,556.480835 
	C520.292480,539.276672 499.256805,521.998535 478.206818,504.738037 
	C477.519867,504.174713 476.387726,503.819946 476.990051,501.082336 
	C524.585388,539.675049 571.614075,577.808289 618.961243,616.124939 
	C619.063904,617.152161 618.701172,617.861633 617.410034,618.030090 
z"/>
<path fill="#79645B" opacity="1.000000" stroke="none" 
	d="
M516.687500,660.319458 
	C510.484222,653.795593 503.343323,648.889771 496.701965,643.415344 
	C481.059418,630.521240 465.257355,617.820740 449.571869,604.978394 
	C448.608978,604.190002 446.063660,603.598511 447.607056,601.790527 
	C448.747681,600.454346 449.840057,602.499451 450.754761,603.238220 
	C468.080322,617.230225 485.368958,631.267883 502.664673,645.296753 
	C508.603027,650.113464 514.539734,654.932190 520.791138,659.884216 
	C520.236267,664.786316 518.271484,659.199341 516.687500,660.319458 
z"/>
<path fill="#7B675D" opacity="1.000000" stroke="none" 
	d="
M338.999115,609.439392 
	C355.563202,596.662537 372.114136,584.252258 388.665070,571.842041 
	C389.066620,572.355103 389.468170,572.868164 389.869720,573.381226 
	C373.968140,585.644409 358.066559,597.907654 341.987854,610.454285 
	C340.849121,610.487793 339.319824,611.959167 338.999115,609.439392 
z"/>
<path fill="#79675D" opacity="1.000000" stroke="none" 
	d="
M300.039215,577.648193 
	C309.737793,571.741089 317.955994,564.165588 326.935028,557.628479 
	C334.182281,552.352234 341.212372,546.777832 348.343811,541.342224 
	C348.976135,540.860291 349.583221,540.137451 351.495758,541.669373 
	C334.942749,554.293396 318.623413,566.739258 302.137512,579.465027 
	C300.693268,579.833923 299.929077,579.358459 300.039215,577.648193 
z"/>
<path fill="#7E685D" opacity="1.000000" stroke="none" 
	d="
M376.752289,634.544189 
	C384.537994,628.227478 392.428955,622.181274 400.653381,616.053711 
	C401.368225,616.038696 401.679688,616.226318 402.014404,616.786255 
	C396.323547,622.450195 389.765625,626.846313 383.521667,631.642761 
	C382.090088,632.742432 380.693512,633.887695 379.060242,635.235229 
	C378.036743,635.681702 377.331268,635.605042 376.752289,634.544189 
z"/>
<path fill="#FED385" opacity="1.000000" stroke="none" 
	d="
M324.736633,116.427849 
	C324.701172,115.642929 324.804993,115.323235 324.824463,114.998489 
	C325.300018,107.063080 325.298431,107.062988 333.518036,106.712921 
	C336.453308,106.719734 338.943024,106.916962 341.432770,106.917564 
	C417.558258,106.935783 493.683899,106.986053 569.809021,106.820496 
	C574.856995,106.809517 576.236877,108.054283 576.192688,113.161842 
	C575.937744,142.643692 575.999878,172.129211 576.147949,201.612534 
	C576.168152,205.634720 575.203735,207.137405 570.911377,207.029892 
	C559.424744,206.742157 547.925232,207.008255 536.433228,206.865204 
	C533.568237,206.829544 531.885254,207.660110 530.641113,210.352814 
	C526.247742,219.861511 521.642578,229.272766 517.069580,238.697617 
	C516.525391,239.819077 516.398804,241.667145 514.757874,241.573578 
	C513.271362,241.488831 512.984680,239.761414 512.437134,238.601196 
	C508.184784,229.590637 503.802673,220.635056 499.830536,211.501633 
	C498.246063,207.858307 496.115723,206.820099 492.231842,206.829834 
	C438.594513,206.964172 384.956696,206.920486 331.319031,206.920761 
	C324.935791,206.920792 324.934326,206.921722 324.927063,200.342834 
	C324.896423,172.525467 324.866699,144.708084 324.736633,116.427849 
z"/>
<path fill="#75D4DD" opacity="1.000000" stroke="none" 
	d="
M233.042328,360.970581 
	C225.550430,356.657501 219.547607,350.462616 212.993942,344.951141 
	C203.140732,336.664764 193.514603,328.108398 183.640259,319.340820 
	C198.620163,301.231903 213.753601,283.450592 228.877792,265.661407 
	C229.621948,264.786102 230.285294,263.842102 231.106415,262.629578 
	C232.989319,261.547852 234.359039,262.146606 235.754700,263.346619 
	C249.741745,275.372864 263.791595,287.326233 277.742615,299.393951 
	C279.302094,300.742889 281.439728,301.802277 281.681091,304.597046 
	C273.077484,313.104279 266.115356,322.678101 258.271912,331.477081 
	C249.743591,341.044312 241.568649,350.926575 233.042328,360.970581 
z"/>
<path fill="#79D6DF" opacity="1.000000" stroke="none" 
	d="
M640.746460,269.167114 
	C654.722717,272.451843 661.118408,282.667236 656.971436,294.430298 
	C654.303345,301.998413 645.360474,307.676544 637.763611,306.625977 
	C628.454590,305.338654 621.323853,298.104309 621.007812,289.626709 
	C620.629395,279.474854 625.873596,271.998108 634.927917,269.907593 
	C636.692322,269.500183 638.526672,269.395813 640.746460,269.167114 
z"/>
<path fill="#79635A" opacity="1.000000" stroke="none" 
	d="
M566.972656,646.968811 
	C565.591187,646.987610 564.416748,646.673218 563.284546,645.752319 
	C534.928467,622.689087 506.542358,599.662720 478.174530,576.613831 
	C477.251587,575.863953 475.541138,575.485657 476.662048,573.029968 
	C480.003052,575.475464 483.344604,577.711548 486.456055,580.231812 
	C512.920959,601.668579 539.346252,623.154297 565.763000,644.650391 
	C566.240906,645.039246 566.468201,645.735962 566.870850,646.622925 
	C566.929321,646.956848 566.985779,647.000366 566.972656,646.968811 
z"/>
<path fill="#FD856A" opacity="1.000000" stroke="none" 
	d="
M848.764587,502.315308 
	C856.305908,512.456421 853.038086,522.843323 846.062012,528.315430 
	C838.578491,534.185608 828.268311,533.268188 821.751770,526.221680 
	C815.667725,519.642883 815.561890,508.540619 821.521545,502.082428 
	C828.051147,495.006561 838.676941,494.098145 846.347656,499.987274 
	C847.133789,500.590790 847.797241,501.354065 848.764587,502.315308 
z"/>
<path fill="#79675D" opacity="1.000000" stroke="none" 
	d="
M402.427155,616.976807 
	C401.812744,616.849365 401.528076,616.643677 401.115112,616.205078 
	C405.590118,612.320312 410.193359,608.668396 414.796600,605.016479 
	C415.158936,605.451233 415.521301,605.886047 415.883636,606.320801 
	C412.340729,610.766968 407.199402,613.446594 402.427155,616.976807 
z"/>
<path fill="#F0F1F2" opacity="1.000000" stroke="none" 
	d="
M240.221161,666.033386 
	C232.345474,675.122620 221.744492,672.920654 216.096054,667.395264 
	C209.667023,661.106445 210.290756,650.547546 217.147202,644.208679 
	C222.126816,639.604980 229.281113,638.878296 235.118317,642.383362 
	C241.940140,646.479675 244.759842,653.234924 242.629532,660.725464 
	C242.135406,662.463013 241.197037,664.074097 240.221161,666.033386 
z"/>
<path fill="#EFF1F2" opacity="1.000000" stroke="none" 
	d="
M748.945251,624.472717 
	C748.957886,630.970642 746.004761,635.427429 741.152405,636.724304 
	C737.073364,637.814636 731.919373,635.482605 729.700073,631.542419 
	C726.728210,626.266113 728.252441,620.524109 733.478333,617.308716 
	C738.052002,614.494690 744.382690,616.095642 747.437927,620.904785 
	C748.054382,621.875122 748.410645,623.010742 748.945251,624.472717 
z"/>
<path fill="#FD936E" opacity="1.000000" stroke="none" 
	d="
M434.000000,155.011719 
	C468.640076,155.011459 502.780243,154.982834 536.920044,155.075653 
	C539.158142,155.081741 543.130615,153.708862 543.241394,156.862869 
	C543.363403,160.334427 539.358643,158.883636 537.197021,158.886963 
	C479.408844,158.975906 421.620422,158.975723 363.832245,158.887466 
	C361.661835,158.884155 357.660553,160.303421 357.760254,156.878540 
	C357.852997,153.693665 361.825256,155.089462 364.054352,155.078934 
	C387.202515,154.969711 410.351349,155.011703 434.000000,155.011719 
z"/>
<path fill="#FC8568" opacity="1.000000" stroke="none" 
	d="
M510.000000,179.950928 
	C519.494263,179.950928 528.489563,179.879440 537.481873,180.012070 
	C539.259583,180.038284 542.461365,178.836319 542.526550,181.403122 
	C542.595398,184.119202 539.375122,182.933838 537.646973,182.937683 
	C501.836609,183.017654 466.026062,182.998199 430.215546,182.998337 
	C408.229553,182.998413 386.243561,182.998962 364.257568,182.996796 
	C362.925293,182.996674 361.591064,183.015076 360.261414,182.949600 
	C359.228546,182.898743 358.179932,182.660919 358.281525,181.305405 
	C358.358398,180.279465 359.234467,180.035446 360.096191,180.004852 
	C361.593628,179.951706 363.093506,179.952942 364.592346,179.952881 
	C412.894897,179.950653 461.197449,179.951004 510.000000,179.950928 
z"/>
<path fill="#FC8567" opacity="1.000000" stroke="none" 
	d="
M401.000000,130.956177 
	C446.805786,130.955399 492.111603,130.940414 537.417297,131.006882 
	C539.203491,131.009491 542.503601,129.969055 542.483521,132.331055 
	C542.457153,135.441635 539.051697,133.923080 537.214722,133.925873 
	C479.583252,134.013596 421.951599,133.996994 364.319977,133.995956 
	C363.320587,133.995941 362.315796,134.056320 361.323181,133.973145 
	C360.096191,133.870316 358.202026,134.352341 358.316406,132.383774 
	C358.423950,130.532455 360.288605,130.982361 361.523773,130.979141 
	C374.515778,130.945251 387.507904,130.957062 401.000000,130.956177 
z"/>
<path fill="#EEF1F2" opacity="1.000000" stroke="none" 
	d="
M640.784668,298.110107 
	C633.391968,297.737030 629.817566,294.923950 629.046204,289.230652 
	C628.459900,284.902954 631.362610,279.922363 635.383606,278.356598 
	C641.488281,275.979431 647.710938,279.016968 649.636414,285.313873 
	C651.420227,291.147522 647.932434,296.424866 640.784668,298.110107 
z"/>
</svg>