<svg id="SvgjsSvg1081" width="288" height="288" xmlns="http://www.w3.org/2000/svg" version="1.1" xmlns:xlink="http://www.w3.org/1999/xlink" xmlns:svgjs="http://svgjs.com/svgjs"><circle id="SvgjsCircle1115" r="144" cx="144" cy="144" transform="matrix(0.7916,0,0,0.7916,30.009600000000006,30.009600000000006)" fill="#fd67a4"></circle><defs id="SvgjsDefs1082"></defs><g id="SvgjsG1083" transform="matrix(0.4652,0,0,0.4652,77.0112,77.01119846992492)"><svg xmlns="http://www.w3.org/2000/svg" xmlns:xlink="http://www.w3.org/1999/xlink" viewBox="0 0 64 64" width="288" height="288"><defs><linearGradient id="a" x1="32" x2="32" y1="61" y2="26" gradientUnits="userSpaceOnUse"><stop offset="0" stop-color="#54a5ff" class="stopColor54a5ff svgShape"></stop><stop offset="1" stop-color="#8ad3fe" class="stopColor8ad3fe svgShape"></stop></linearGradient><linearGradient id="d" y1="33" y2="3" xlink:href="#a"></linearGradient><linearGradient id="b" x1="20" x2="20" y1="27" y2="15" gradientUnits="userSpaceOnUse"><stop offset="0" stop-color="#d3e6f5" class="stopColord3e6f5 svgShape"></stop><stop offset="1" stop-color="#f0f7fc" class="stopColorf0f7fc svgShape"></stop></linearGradient><linearGradient id="e" x1="29.09" x2="52.91" y1="49.91" y2="26.09" xlink:href="#b"></linearGradient><linearGradient id="c" x1="7" x2="18" y1="19" y2="19" gradientUnits="userSpaceOnUse"><stop offset="0" stop-color="#fe9661" class="stopColorfe9661 svgShape"></stop><stop offset="1" stop-color="#ffb369" class="stopColorffb369 svgShape"></stop></linearGradient><linearGradient id="f" x1="11.54" x2="21.46" y1="27.96" y2="18.04" xlink:href="#c"></linearGradient><linearGradient id="g" x1="25" x2="36" y1="36" y2="36" xlink:href="#c"></linearGradient><linearGradient id="h" x1="29.04" x2="37.96" y1="44.46" y2="35.54" xlink:href="#c"></linearGradient><linearGradient id="i" x1="48.5" x2="48.5" y1="41" y2="39" xlink:href="#c"></linearGradient><linearGradient id="j" x1="38" x2="46" y1="36" y2="36" xlink:href="#c"></linearGradient></defs><path fill="#f0f7fc" d="M15 49V9.6A5.64 5.64 0 0 1 20.67 4H44a5 5 0 0 1 5 5v40Z" class="colorf0f7fc svgShape"></path><path fill="url(#a)" d="M49 43a1 1 0 0 0-1 1v4H16V27a1 1 0 0 0-2 0v27.4a6.64 6.64 0 0 0 6.67 6.6h22.66A6.64 6.64 0 0 0 50 54.4V44a1 1 0 0 0-1-1Z"></path><path fill="url(#d)" d="M44 3H20.67A6.64 6.64 0 0 0 14 9.6V15a1 1 0 0 0 2 0V9.6A4.64 4.64 0 0 1 20.67 5H24v3a3 3 0 0 0 3 3h10a3 3 0 0 0 3-3V5h4a4 4 0 0 1 4 4v23a1 1 0 0 0 2 0V9a6 6 0 0 0-6-6Z"></path><rect width="32" height="12" x="4" y="15" fill="url(#b)" rx="2" ry="2"></rect><rect width="38" height="12" x="22" y="32" fill="url(#e)" rx="2" ry="2"></rect><path fill="url(#c)" d="M17 20H8a1 1 0 0 1 0-2h9a1 1 0 0 1 0 2Z"></path><path fill="url(#f)" d="M25 24H8a1 1 0 0 1 0-2h17a1 1 0 0 1 0 2Z"></path><path fill="url(#g)" d="M35 37h-9a1 1 0 0 1 0-2h9a1 1 0 0 1 0 2Z"></path><path fill="url(#h)" d="M41 41H26a1 1 0 0 1 0-2h15a1 1 0 0 1 0 2Z"></path><path fill="url(#i)" d="M52 41h-7a1 1 0 0 1 0-2h7a1 1 0 0 1 0 2Z"></path><path fill="url(#j)" d="M45 37h-6a1 1 0 0 1 0-2h6a1 1 0 0 1 0 2Z"></path><path fill="#f0f7fc" d="M33 55h-2a1 1 0 0 1 0-2h2a1 1 0 0 1 0 2Z" class="colorf0f7fc svgShape"></path></svg></g></svg>