<svg id="SvgjsSvg1020" width="288" height="288" xmlns="http://www.w3.org/2000/svg" version="1.1" xmlns:xlink="http://www.w3.org/1999/xlink" xmlns:svgjs="http://svgjs.com/svgjs"><defs id="SvgjsDefs1021"></defs><g id="SvgjsG1022"><svg xmlns="http://www.w3.org/2000/svg" viewBox="0 0 64 64" width="288" height="288"><path fill="#9e579d" d="M5.408 14.682 30.202.478a3.617 3.617 0 0 1 3.596 0l24.794 14.204a3.616 3.616 0 0 1 1.819 3.138v28.359a3.615 3.615 0 0 1-1.819 3.138L33.798 63.522a3.617 3.617 0 0 1-3.596 0L5.408 49.318a3.616 3.616 0 0 1-1.819-3.138V17.821c0-1.297.694-2.494 1.819-3.139z" class="colorfff svgShape"></path><path fill="#574b90" d="M8.565 16.491 30.202 4.095a3.617 3.617 0 0 1 3.596 0L55.435 16.49a3.616 3.616 0 0 1 1.819 3.138V44.37a3.615 3.615 0 0 1-1.819 3.138L33.798 59.905a3.617 3.617 0 0 1-3.596 0L8.565 47.509a3.616 3.616 0 0 1-1.819-3.138V19.629c0-1.297.694-2.494 1.819-3.138z" class="color3a3f99 svgShape"></path><path fill="#303a52" d="m8.507 16.422 21.71-12.437a3.63 3.63 0 0 1 3.608 0l21.71 12.437a3.629 3.629 0 0 1 1.825 3.149v24.825a3.629 3.629 0 0 1-1.825 3.149l-21.71 12.437a3.63 3.63 0 0 1-3.608 0L8.507 47.544a3.629 3.629 0 0 1-1.825-3.149V19.571c0-1.301.697-2.502 1.825-3.149z" class="color4aafce svgShape"></path><circle cx="31.351" cy="32.832" r="17.058" fill="#fc85ae" opacity=".2" class="colorffcf68 svgShape"></circle><circle cx="31.351" cy="32.832" r="14.621" fill="#fc85ae" opacity=".3" class="colorffcf68 svgShape"></circle><circle cx="31.351" cy="32.832" r="12.184" fill="#fc85ae" opacity=".4" class="colorffcf68 svgShape"></circle><circle cx="31.351" cy="32.832" r="9.098" fill="#fc85ae" class="colorffcf68 svgShape"></circle><path fill="#ff5590" d="M31.351 23.734c-.517 0-1.023.045-1.516.128 4.302.722 7.581 4.462 7.581 8.969s-3.279 8.247-7.581 8.969a9.098 9.098 0 1 0 1.516-18.066z" class="colorffc255 svgShape"></path><path fill="#615e6d" d="m50.356 27.476-6.031 6.036-3.416-3.419c-.71-.71-1.86-.71-2.57 0l-8.819 8.82-5.245-5.246a1.818 1.818 0 0 0-2.571 0l-2.662 2.662-6.236-6.236c-.71-.71-1.666-.71-2.376 0L7 33.716v10.679c0 1.301.537 2.502 1.666 3.149l21.63 12.437c1.117.64 2.451.64 3.568 0l21.51-12.437C56.503 46.898 57 45.696 57 44.395V31.934l-4.261-4.459c-.71-.71-1.673-.71-2.383.001z" class="color5e646d svgShape"></path><path fill="#f2f2f2" d="M9.251 35.452a.727.727 0 0 1 1.105.102l1.037 1.484a.727.727 0 0 0 1.189.004l1.123-1.584a.728.728 0 0 1 1.028-.162l.911.679c.29.216.694.187.949-.069l1.04-1.04-4.83-4.83a1.775 1.775 0 0 0-2.535 0L6.682 33.66v2.977l.129.144a.727.727 0 0 0 1.051.034l1.389-1.363zm25.48-1.809 1.482 1.656a.509.509 0 0 0 .735.024l.971-.953a.509.509 0 0 1 .773.072l.725 1.037c.202.288.628.29.831.003l.785-1.107a.508.508 0 0 1 .719-.113l.637.475a.51.51 0 0 0 .664-.048l1.252-1.252-3.397-3.399c-.71-.71-1.86-.71-2.57 0l-3.607 3.605zM57 31.877l-4.261-4.459c-.71-.71-1.763-.71-2.473 0l-5.573 5.622 2.065 2.282a.768.768 0 0 0 1.103.035l1.448-1.415a.759.759 0 0 1 1.151.106l1.079 1.541a.756.756 0 0 0 1.236.004l1.167-1.645a.756.756 0 0 1 1.068-.169l.946.706c.301.224.541.194.806-.071l.238-.416v-2.121zm-37.233 5.368c.148.22.45.272.664.114l1.001-.742a.466.466 0 0 1 .692.162l.527 1.032a.465.465 0 0 0 .754.107l.852-.905a.466.466 0 0 1 .666-.012l.518.511a.467.467 0 0 0 .608.04l1.234-.933-3.009-3.01a1.818 1.818 0 0 0-2.571 0l-2.618 2.618.682 1.018z" class="colorf2f2f2 svgShape"></path></svg></g></svg>